<svg xmlns="http://www.w3.org/2000/svg" xmlns:xlink="http://www.w3.org/1999/xlink" width="120" height="120" viewBox="0 0 120 120">
    <defs>
        <path id="a" d="M0 0h1440v574H0z"/>
        <linearGradient id="c" x1="15.827%" x2="84.488%" y1="29.122%" y2="69.53%">
            <stop offset="0%" stop-color="#C2CECE"/>
            <stop offset="100%" stop-color="#97AAAA"/>
        </linearGradient>
        <linearGradient id="d" x1="13.498%" x2="107.126%" y1="44.154%" y2="60.115%">
            <stop offset="0%" stop-color="#00A6F9"/>
            <stop offset="100%" stop-color="#0071E2"/>
        </linearGradient>
        <linearGradient id="e" x1="50.005%" x2="50.005%" y1="32.612%" y2="-113.235%">
            <stop offset="0%" stop-color="#C2CECE" stop-opacity="0"/>
            <stop offset="17.9%" stop-color="#AFBCBC" stop-opacity=".179"/>
            <stop offset="100%" stop-color="#5B6A6A"/>
        </linearGradient>
        <linearGradient id="f" x1="50.037%" x2="50.037%" y1="33.168%" y2="-115.164%">
            <stop offset="0%" stop-color="#C2CECE" stop-opacity="0"/>
            <stop offset="17.9%" stop-color="#AFBCBC" stop-opacity=".179"/>
            <stop offset="100%" stop-color="#5B6A6A"/>
        </linearGradient>
        <linearGradient id="g" x1="49.831%" x2="45.439%" y1="49.69%" y2="56.291%">
            <stop offset=".01%" stop-color="#008BF2" stop-opacity="0"/>
            <stop offset="100%" stop-color="#0046E2"/>
        </linearGradient>
    </defs>
    <g fill="none" fill-rule="evenodd">
        <path fill="#FFF" d="M-323-1532h1440v3765H-323z"/>
        <path fill="#FFF" d="M-323-1532h1440V672H-323z"/>
        <g transform="translate(-323 -238)">
            <mask id="b" fill="#fff">
                <use xlink:href="#a"/>
            </mask>
            <use fill="#FFF" xlink:href="#a"/>
            <g fill-rule="nonzero" mask="url(#b)">
                <path fill="#54CAFF" d="M422.936 255h-79.872a4.066 4.066 0 0 0-4.064 4.065v83.87a4.066 4.066 0 0 0 4.064 4.065h79.872a4.066 4.066 0 0 0 4.064-4.065v-83.87a4.066 4.066 0 0 0-4.064-4.065z"/>
                <path fill="url(#c)" d="M91.936 98H12.064A4.06 4.06 0 0 1 8 93.944V50h88v43.944A4.06 4.06 0 0 1 91.936 98z" transform="translate(331 249)"/>
                <path fill="#8CA0B3" d="M422.936 347h-79.872c-2.245 0-4.064-1.877-4.064-4.194V334h88v8.806c0 2.317-1.82 4.194-4.064 4.194z"/>
                <path fill="url(#d)" d="M99.916 88H4.083C1.462 88-.48 85.54.105 82.961L7.805 49h88.39l7.7 33.961c.585 2.58-1.357 5.039-3.979 5.039z" transform="translate(331 249)"/>
                <path fill="#28B6F6" d="M430.916 337h-95.833c-2.621 0-4.563-2.46-3.978-5.039l7.7-33.961h88.39l7.7 33.961c.585 2.58-1.357 5.039-3.979 5.039z"/>
                <g fill="#FFF">
                    <path d="M360.027 306.665v-17.27c0-4.55 1.196-7.894 3.589-10.03 2.392-2.137 5.589-3.205 9.589-3.205s7.207 1.068 9.619 3.205c2.412 2.136 3.617 5.48 3.617 10.03v17.27c0 4.55-1.205 7.893-3.617 10.03-2.413 2.136-5.619 3.204-9.619 3.204s-7.197-1.068-9.589-3.204c-2.393-2.137-3.589-5.48-3.589-10.03zm6.236 0c0 5.104 2.314 7.656 6.942 7.656 2.236 0 3.961-.633 5.177-1.9 1.215-1.265 1.824-3.184 1.824-5.756v-17.27c0-2.572-.609-4.49-1.824-5.757-1.216-1.266-2.941-1.9-5.177-1.9-4.628 0-6.942 2.553-6.942 7.657v17.27zM390.265 285.122c0-1.029.412-1.84 1.236-2.434l6.118-5.935a2.15 2.15 0 0 1 1.588-.652c.706 0 1.343.188 1.912.563.568.377.853.881.853 1.514v39.288c0 .633-.314 1.138-.941 1.513-.628.376-1.353.564-2.177.564-.863 0-1.598-.187-2.206-.564-.608-.375-.912-.88-.912-1.513v-32.997l-2.059 2.61c-.392.397-.823.594-1.294.594-.588 0-1.088-.267-1.5-.8-.412-.535-.618-1.118-.618-1.751z"/>
                </g>
                <path fill="url(#e)" d="M20.204.135V8.03c0 2.503-.606 4.369-1.823 5.6-1.214 1.232-2.94 1.848-5.175 1.848-4.628 0-6.944-2.485-6.944-7.447V.135H.027V8.03c0 4.427 1.196 7.678 3.59 9.753 2.391 2.078 5.589 3.119 9.59 3.119 3.998 0 7.206-1.04 9.616-3.119 2.413-2.075 3.62-5.327 3.62-9.753V.135h-6.239z" transform="translate(362 298)"/>
                <path fill="url(#f)" d="M35.737.135v18.4c0 .616.303 1.107.911 1.473.606.366 1.342.547 2.205.547.825 0 1.55-.18 2.178-.547.627-.366.94-.857.94-1.473V.135h-6.234z" transform="translate(362 298)"/>
                <path fill="url(#g)" d="M103.894 83.034l-7.803-33.463V10.059C96.091 7.82 94.24 6 91.956 6H90c2.283 0 4.136 1.819 4.136 4.06V49.57l7.802 33.463c.593 2.544-1.376 4.966-4.03 4.966h1.955c2.655 0 4.624-2.422 4.031-4.966z" transform="translate(331 249)"/>
                <path fill="#FFC853" d="M369 263c-2.21 0-4-1.688-4-3.77v-6.46c0-2.082 1.79-3.77 4-3.77s4 1.688 4 3.77v6.46c0 2.082-1.79 3.77-4 3.77zM397 263c-2.21 0-4-1.688-4-3.77v-6.46c0-2.082 1.79-3.77 4-3.77s4 1.688 4 3.77v6.46c0 2.082-1.791 3.77-4 3.77z"/>
            </g>
        </g>
    </g>
</svg>
