<svg xmlns="http://www.w3.org/2000/svg" xmlns:xlink="http://www.w3.org/1999/xlink" width="120" height="120" viewBox="0 0 120 120">
    <defs>
        <path id="a" d="M0 0h1440v574H0z"/>
    </defs>
    <g fill="none" fill-rule="evenodd">
        <path fill="#FFF" d="M-659-1532H781v3765H-659z"/>
        <path fill="#FFF" d="M-659-1532H781V672H-659z"/>
        <g transform="translate(-659 -238)">
            <mask id="b" fill="#fff">
                <use xlink:href="#a"/>
            </mask>
            <use fill="#FFF" xlink:href="#a"/>
            <g fill-rule="nonzero" mask="url(#b)">
                <path fill="#FFC853" d="M709.2 300l-42.157 44.571a3.81 3.81 0 0 0 5.386 5.387L717 307.8l-.119-7.681L709.2 300z"/>
                <path fill="#85D9FF" d="M725.704 291l-7.463-6.538c1.933-13.713-5.126-22.09-7.044-30.385-.92-3.977 1.464-8.065 5.445-8.917a7.152 7.152 0 0 1 6.125 1.536c1.105.932 2.642 1.16 3.945.536a7.162 7.162 0 0 1 7.315.659c2.757 1.999 3.678 5.595 2.419 8.61L725.704 291z"/>
                <path fill="#54CAFF" d="M733.99 247.383a7.264 7.264 0 0 0-7.41-.667s-3.515 6.652-4.108 19.23c-.248 5.245-2.082 9.906-4.137 13.56a33.58 33.58 0 0 1-.335 4.879l7.558 6.615 10.88-34.905c1.276-3.052.344-6.69-2.449-8.712z"/>
                <path fill="#85D9FF" d="M726 291.297l6.538 7.462c13.712-1.933 22.09 5.126 30.385 7.044 3.977.92 8.065-1.464 8.917-5.445a7.152 7.152 0 0 0-1.536-6.125c-.932-1.105-1.16-2.643-.536-3.945a7.162 7.162 0 0 0-.659-7.315c-1.999-2.758-5.595-3.678-8.611-2.418L726 291.297z"/>
                <path fill="#54CAFF" d="M769.617 283.011a7.26 7.26 0 0 1 .667 7.409s-6.653 3.514-19.231 4.108c-5.244.248-9.906 2.081-13.56 4.137a33.57 33.57 0 0 0-4.878.335L726 291.442l34.905-10.88c3.052-1.276 6.69-.344 8.712 2.449z"/>
                <path fill="#85D9FF" d="M722 290.456l4.543 4.544c13.446-10.478 29.57-6.815 37.841-14.352 3.183-2.901 3.56-7.865.585-10.98a7.509 7.509 0 0 0-4.753-2.3c-.998-.093-1.8-.858-1.887-1.856a7.51 7.51 0 0 0-2.177-4.665 7.508 7.508 0 0 0-4.633-2.175 2.076 2.076 0 0 1-1.886-1.875 7.506 7.506 0 0 0-2.255-4.722c-3.142-3.054-8.203-2.647-11.11.633-7.09 7.998-3.84 24.364-14.268 37.748z"/>
                <path fill="#8CA0B3" d="M709 300.358l7.642 7.642s5.211-5.778 15.258-9.032c0 0 1.136-4.22-4.256-9.612-5.392-5.393-9.612-4.256-9.612-4.256-3.254 10.047-9.032 15.258-9.032 15.258z"/>
            </g>
        </g>
    </g>
</svg>
