<svg xmlns="http://www.w3.org/2000/svg" xmlns:xlink="http://www.w3.org/1999/xlink" width="120" height="120" viewBox="0 0 120 120">
    <defs>
        <path id="a" d="M0 0h1440v574H0z"/>
    </defs>
    <g fill="none" fill-rule="evenodd">
        <path fill="#FFF" d="M-997-1532H443v3765H-997z"/>
        <path fill="#FFF" d="M-997-1532H443V672H-997z"/>
        <g transform="translate(-997 -238)">
            <mask id="b" fill="#fff">
                <use xlink:href="#a"/>
            </mask>
            <use fill="#FFF" xlink:href="#a"/>
            <g mask="url(#b)">
                <g fill-rule="nonzero" transform="translate(1011 244)">
                    <circle cx="4" cy="76" r="3" fill="#FF4B4E"/>
                    <circle cx="19" cy="39" r="3" fill="#FFC853"/>
                    <circle cx="62" cy="31" r="3" fill="#00CDB3"/>
                    <g fill="#57BAE5" transform="translate(28 12)">
                        <ellipse cx="60.79" cy="63.628" rx="3.155" ry="3.168"/>
                        <ellipse cx="3.342" cy="3.224" rx="3.155" ry="3.168"/>
                    </g>
                    <path fill="#FFC853" d="M85.43 53.82l-26.769-3.89L46.69 25.67c-1.097-2.226-4.282-2.227-5.38 0L29.337 49.93l-26.77 3.89a3 3 0 0 0-1.662 5.118l19.37 18.883-4.573 26.664c-.418 2.445 2.156 4.319 4.354 3.163L44 95.06c26.049 13.697 24.293 12.933 25.338 12.933a3.002 3.002 0 0 0 2.958-3.507L67.723 77.82l19.37-18.883c1.777-1.733.795-4.761-1.663-5.119zM15.003 29.968c-1.77-.356-4.843-2.686-3.798-8.955.382-2.29-.088-2.477-2.649-3.088-2.501-.598-6.282-1.5-6.554-7.066-.048-.975.666-1.806 1.593-1.857.929-.05 1.717.7 1.764 1.675.136 2.769 1.376 3.186 3.941 3.8 2.305.55 6.162 1.471 5.216 7.147-.717 4.302 1.1 4.867 1.118 4.87.912.184 1.51 1.11 1.336 2.07-.175.96-1.057 1.588-1.967 1.404z"/>
                    <circle cx="5" cy="34" r="2" fill="#57BAE5"/>
                    <circle cx="79" cy="80" r="2" fill="#00CDB3"/>
                    <circle cx="7" cy="94" r="2" fill="#FFCA54"/>
                    <g fill="#FF4B4E">
                        <path d="M72.571 31.337a1.59 1.59 0 0 1-.034-2.318l2.379-2.343a1.767 1.767 0 0 1 2.421-.032 1.59 1.59 0 0 1 .035 2.317l-2.38 2.343c-.66.65-1.744.663-2.42.033zM26.278 30.436l-3.164-1.225c-.877-.339-1.3-1.294-.946-2.134.354-.839 1.352-1.244 2.23-.905l3.164 1.225c.877.339 1.3 1.294.945 2.134-.353.838-1.351 1.245-2.23.905z"/>
                    </g>
                    <path fill="#00CDB3" d="M10.499 86.867l-3.361-1.36A1.82 1.82 0 0 1 8.5 82.133l3.362 1.36a1.82 1.82 0 0 1-1.364 3.374z"/>
                    <path fill="#57BAE5" d="M83.499 92.867l-3.361-1.36a1.82 1.82 0 0 1 1.363-3.374l3.362 1.36a1.82 1.82 0 0 1-1.364 3.374z"/>
                    <g fill="#FFC853">
                        <path d="M62.865 1.428A1.725 1.725 0 0 0 60.868.026 1.728 1.728 0 0 0 59.47 2.03c.47 2.67-.677 3.353-3.106 4.529-2.183 1.056-5.835 2.823-3.649 8.013 1.662 3.947-.053 4.9-.053 4.9-.482.32-2.007.889-1.356 2.445 1.125 2.689 8.103-.334 4.583-8.69-.881-2.093-.453-2.38 1.972-3.554 2.369-1.147 5.949-2.879 5.004-8.244zM89.118 26.617a1.72 1.72 0 0 0-2.399.429c-1.26 1.813-1.505 3.971-1.721 5.875-.373 3.281-.512 4.51-3.93 4.29-3.766-.241-6.58.568-8.364 2.404-2.199 2.262-2.12 5.382-.048 5.417 1.723.029 1.84-1.813 1.84-1.813s.356-2.939 6.352-2.557c9.44.603 6.423-8.365 8.698-11.639a1.731 1.731 0 0 0-.428-2.406z"/>
                    </g>
                </g>
            </g>
        </g>
    </g>
</svg>
